inDegrees=no
num_controls=7
num_derivatives=13
num_iterations=111
num_multipliers=7
num_parameters=0
num_slacks=7
num_states=26
objective=0.543557
objective_accelerations=0.061225
objective_balance=0.003257
objective_effort=0.047504
objective_height=0.421811
objective_ligament=0.009761
solver_duration=1424.928315
status=Solve_Succeeded
success=true
DataType=double
version=3
OpenSimVersion=4.5
endheader
time	/jointset/ground_pelvis/pelvis_tilt/value	/jointset/ground_pelvis/pelvis_tx/value	/jointset/ground_pelvis/pelvis_ty/value	/jointset/hip_r/hip_flexion_r/value	/jointset/hip_r/hip_adduction_r/value	/jointset/hip_r/hip_rotation_r/value	/jointset/back/lumbar_extension/value	/jointset/patellofemoral_r/patellar_flexion_r/value	/jointset/knee_r/knee_flexion_r/value	/jointset/knee_r/knee_adduction_r/value	/jointset/knee_r/knee_rotation_r/value	/jointset/ankle_r/ankle_angle_r/value	/jointset/subtalar_r/subtalar_angle_r/value	/jointset/ground_pelvis/pelvis_tilt/speed	/jointset/ground_pelvis/pelvis_tx/speed	/jointset/ground_pelvis/pelvis_ty/speed	/jointset/hip_r/hip_flexion_r/speed	/jointset/hip_r/hip_adduction_r/speed	/jointset/hip_r/hip_rotation_r/speed	/jointset/back/lumbar_extension/speed	/jointset/patellofemoral_r/patellar_flexion_r/speed	/jointset/knee_r/knee_flexion_r/speed	/jointset/knee_r/knee_adduction_r/speed	/jointset/knee_r/knee_rotation_r/speed	/jointset/ankle_r/ankle_angle_r/speed	/jointset/subtalar_r/subtalar_angle_r/speed	/forceset/tau_hip_flexion_r	/forceset/tau_hip_adduction_r	/forceset/tau_hip_rotation_r	/forceset/tau_knee_flexion_r	/forceset/tau_ankle_angle_r	/forceset/tau_subtalar_angle_r	/forceset/tau_lumbar_extension	lambda_cid13_p0	lambda_cid14_p0	lambda_cid14_p1	lambda_cid14_p2	lambda_cid14_p3	lambda_cid14_p4	lambda_cid14_p5	/jointset/ground_pelvis/pelvis_tilt/accel	/jointset/ground_pelvis/pelvis_tx/accel	/jointset/ground_pelvis/pelvis_ty/accel	/jointset/hip_r/hip_flexion_r/accel	/jointset/hip_r/hip_adduction_r/accel	/jointset/hip_r/hip_rotation_r/accel	/jointset/back/lumbar_extension/accel	/jointset/patellofemoral_r/patellar_flexion_r/accel	/jointset/knee_r/knee_flexion_r/accel	/jointset/knee_r/knee_adduction_r/accel	/jointset/knee_r/knee_rotation_r/accel	/jointset/ankle_r/ankle_angle_r/accel	/jointset/subtalar_r/subtalar_angle_r/accel	gamma_cid13_p0	gamma_cid14_p0	gamma_cid14_p1	gamma_cid14_p2	gamma_cid14_p3	gamma_cid14_p4	gamma_cid14_p5
1.5	-0.2037671800686421	0.01731039563960079	0.8175956288525017	0.9480043668991227	-0.2436516197772503	-0.08336472812736483	-0.3055083247338781	0.8424205951612308	0.842420595160809	0.05951407967382231	0.1743961482363046	0.2696805911513157	0.03925988925453659	0.4707897488374572	0.1967891857636959	0.5539791041206401	-2.208702881359335	0.0358336501640906	-0.4833285494876683	0.6986705479057478	-2.270629806661491	-2.270629806661369	0.1680668292387655	0.001832079041747651	-0.6295686281910244	-0.1145828692149851	-0.1293514282323069	-0.018977975689222	0.01535505130887396	-0.3504111709237085	0.08555259051988005	-0.01059588995220076	0.1660878913661556	-22.68627510365412	-13.22759960137873	-3.552810624843767	-2.817303056760495	-2.40863167391865	-646.4389842013269	56.94313564217184	0.4013625190860881	0.5868925526763376	-0.6838049508200803	-1.172451585013764	0.1878588261255746	-0.237034638740454	1.693019645778052	-1.385943416954099	-1.385943416954104	0.6491684445058963	-0.03703289283064568	-0.7018483692155313	0.1227593419090143	1.741107776402996e-07	1.069654566147017e-07	-1.7716787188097e-06	7.861298995597377e-07	1.308973623842413e-07	2.551978331424067e-07	-1.092214590993989e-06
1.51	-0.1990396390919351	0.01930736466811561	0.8231000087934776	0.9258612248737369	-0.2432847220616867	-0.08821030482588356	-0.2984384360146723	0.8196480606239016	0.8196480606235841	0.06122830276617708	0.174414163758716	0.2633504980543103	0.03811920529697965	0.4746431157738263	0.2025723572055738	0.5467720300927755	-2.219609230319084	0.03754515098605898	-0.4857572077967352	0.7151892429124886	-2.283541344960274	-2.283541344960227	0.1747710401260449	0.001756529033835581	-0.6363459853011174	-0.1135332965798721	-0.1216792684967748	-0.02112226489395496	0.01479384170113908	-0.3460060509689921	0.08848297363746518	-0.0113028833888309	0.159163949671053	-24.13927577935483	-12.01104751076809	-3.496398342827386	-2.998146691528098	-2.799649496981715	-640.8284371136691	57.04578602869373	0.3660359070471205	0.569216300425057	-0.757828678798767	-1.002266711158893	0.1626622979644667	-0.2410725377094414	1.613601474759802	-1.193433979898333	-1.193433979909418	0.6797827672227543	0.005156905050626633	-0.6500342768485873	0.09895455486755968	1.856542276449685e-07	1.172536351719377e-07	-1.858845887269725e-06	8.520180876386984e-07	1.311982754497927e-07	2.78323164277512e-07	-1.149676751593546e-06
1.52	-0.1942758220206352	0.0213612027831457	0.828528583984169	0.9036185113268138	-0.2429007360203577	-0.09307922632963693	-0.2912068989360714	0.7967564757148743	0.7967564757146581	0.06300931503868422	0.1744310183730062	0.2569557604072156	0.03698959673188484	0.4780449677555773	0.20816300306675	0.5388181540637461	-2.228617185666967	0.03925131531730959	-0.4879975105345876	0.7310002197847295	-2.294439881001372	-2.294439881001398	0.1814246652686765	0.001599897418808216	-0.6424975382089072	-0.1123677907225547	-0.1140071087612493	-0.02326655409869246	0.01423263209336702	-0.3416009310142758	0.09141335675504883	-0.01200987682546673	0.1522400079759453	-25.57578290888938	-10.79978877716012	-3.438883136357592	-3.181485023222143	-3.194180792694837	-635.3032339588303	57.21442357847673	0.3110595281624962	0.548387436535952	-0.8331653510530314	-0.7927728626403016	0.1867915279820335	-0.1993635244975515	1.551476018878127	-0.983342965416881	-0.9833429654169061	0.6390512955763334	-0.05324921425372371	-0.5766875287549034	0.1459459863498928	1.972453123122786e-07	1.279029259016335e-07	-1.954573341621978e-06	9.169503127890862e-07	1.312299324143259e-07	3.056872707711873e-07	-1.215279715201153e-06
1.53	-0.1894802443136873	0.02346991327360233	0.8338739821008029	0.8812951884851402	-0.2424999122368939	-0.09796966907973027	-0.2838210127907919	0.7737660226131667	0.7737660226131929	0.06485693674672245	0.174446162523118	0.2505026207352437	0.03587196547336715	0.4809895389509233	0.2135391340316456	0.5301444332305403	-2.235717592077181	0.0408994643441163	-0.4900599710141955	0.7460424305069381	-2.303298393117881	-2.30329839311788	0.1881103351875871	0.001429700944433498	-0.6480220651622889	-0.1111546086079896	-0.1062652533859806	-0.02558153852015985	0.01363951314581335	-0.3374443692877915	0.0945003298339662	-0.01283680360976665	0.1452611308889788	-26.99184096202253	-9.562497394660303	-3.436850343856459	-3.346892715853095	-3.556086751507918	-630.0552454600115	57.33704229151009	0.2740128514175341	0.5262579452540552	-0.9019599312172294	-0.6191885399644901	0.1517012706258441	-0.2047255375753015	1.460406784337133	-0.7842964253099139	-0.7842964253058538	0.6846478143738078	0.00138456019561102	-0.5240370324989237	0.1093683922389695	2.088870088086449e-07	1.389358983145678e-07	-2.059396099734725e-06	9.808668273278651e-07	1.309755047715273e-07	3.375550760833429e-07	-1.289532282004815e-06
